<svg width="20" height="12" viewBox="0 0 20 12" fill="none" xmlns="http://www.w3.org/2000/svg">
<path id="Cellular Connection" fill-rule="evenodd" clip-rule="evenodd" d="M18.24 0.666656H17.136C16.5263 0.666656 16.032 1.11437 16.032 1.66666V10.3333C16.032 10.8856 16.5263 11.3333 17.136 11.3333H18.24C18.8497 11.3333 19.344 10.8856 19.344 10.3333V1.66666C19.344 1.11437 18.8497 0.666656 18.24 0.666656ZM11.984 2.99999H13.088C13.6977 2.99999 14.192 3.44771 14.192 3.99999V10.3333C14.192 10.8856 13.6977 11.3333 13.088 11.3333H11.984C11.3743 11.3333 10.88 10.8856 10.88 10.3333V3.99999C10.88 3.44771 11.3743 2.99999 11.984 2.99999ZM7.936 5.33332H6.832C6.22228 5.33332 5.728 5.78104 5.728 6.33332V10.3333C5.728 10.8856 6.22228 11.3333 6.832 11.3333H7.936C8.54573 11.3333 9.04001 10.8856 9.04001 10.3333V6.33332C9.04001 5.78104 8.54573 5.33332 7.936 5.33332ZM2.784 7.33332H1.67999C1.07027 7.33332 0.575989 7.78104 0.575989 8.33332V10.3333C0.575989 10.8856 1.07027 11.3333 1.67999 11.3333H2.784C3.39372 11.3333 3.888 10.8856 3.888 10.3333V8.33332C3.888 7.78104 3.39372 7.33332 2.784 7.33332Z" fill="white"/>
</svg>
